{"title":"See No Evil - S01E03 - Neighborhood Watch","uid":15897833,"size":1175356231,"categoryP":"video","categoryS":"tv_shows","magnet":"?xt=urn:btih:ef10330a05f6bb64c338531b469feaab87da9bd2&amp;dn=See+No+Evil+-+S01E03+-+Neighborhood+Watch&amp;tr=udp%3A%2F%2Ftracker.leechers-paradise.org%3A6969&amp;tr=udp%3A%2F%2Fzer0day.ch%3A1337&amp;tr=udp%3A%2F%2Fopen.demonii.com%3A1337&amp;tr=udp%3A%2F%2Ftracker.coppersurfer.tk%3A6969&amp;tr=udp%3A%2F%2Fexodus.desync.com%3A6969","seeders":7,"leechers":4,"uploader":"Bullrout","files":1,"time":1474977809,"description":"See No Evil - S01E03 - Neighborhood Watch\r\n\r\nPensacola, FL.- two murders, one witness:Police investigate the strange disappearance of a reporter and exposed to an addictive world of gaming.Across state a mom vanishes after a party. Detectives have no leads until cameras begin to spill their secrets.\r\n\r\nComplete name : See No Evil - S01E03 - Neighborhood Watch.mkv\r\nFormat : Matroska\r\nFormat version : Version 4 / Version 2\r\nFile size : 1.09 GiB\r\nDuration : 47 min 11 s\r\nOverall bit rate mode : Variable\r\nOverall bit rate : 3 321 kb/s\r\nEncoded date : UTC 2016-09-26 03:32:52\r\nWriting application : mkvmerge v9.4.2 ('So High') 64bit\r\nWriting library : libebml v1.3.4 + libmatroska v1.4.5\r\n\r\nVideo\r\nID : 2\r\nFormat : AVC\r\nFormat/Info : Advanced Video Codec\r\nFormat profile :   \r\nFormat settings, CABAC : Yes\r\nFormat settings, ReFrames : 3 frames\r\nCodec ID : V_MPEG4/ISO/AVC\r\nDuration : 47 min 11 s\r\nBit rate mode : Variable\r\nBit rate : 2 935 kb/s\r\nMaximum bit rate : 3 000 kb/s\r\nWidth : 1 280 pixels\r\nHeight : 720 pixels\r\nDisplay aspect ratio : 16:9\r\nFrame rate mode : Constant\r\nFrame rate : 25.000 FPS\r\nStandard : PAL\r\nColor space : YUV\r\nChroma subsampling : 4:2:0\r\nBit depth : 8 bits\r\nScan type : Progressive\r\nBits/(Pixel*Frame) : 0.127\r\nStream size : 991 MiB (88%)\r\nWriting library : x264 core 112\r\nDefault : Yes\r\nForced : No\r\nColor range : Limited\r\nColor primaries : BT.709\r\nTransfer characteristics : BT.709\r\nMatrix coefficients : BT.709\r\n\r\nAudio\r\nID : 1\r\nFormat : AC-3\r\nFormat/Info : Audio Coding 3\r\nMode extension : CM (complete main)\r\nFormat settings, Endianness : Big\r\nCodec ID : A_AC3\r\nDuration : 47 min 11 s\r\nBit rate mode : Constant\r\nBit rate : 384 kb/s\r\nChannel(s) : 6 channels\r\nChannel positions : Front: L C R, Side: L R, LFE\r\nSampling rate : 48.0 kHz\r\nFrame rate : 31.250 FPS (1536 spf)\r\nCompression mode : Lossy\r\nStream size : 130 MiB (12%)\r\nDefault : Yes\r\nForced : No","torrent":{"xt":"urn:btih:ef10330a05f6bb64c338531b469feaab87da9bd2","amp;dn":"See+No+Evil+-+S01E03+-+Neighborhood+Watch","amp;tr":["udp%3A%2F%2Ftracker.leechers-paradise.org%3A6969","udp%3A%2F%2Fzer0day.ch%3A1337","udp%3A%2F%2Fopen.demonii.com%3A1337","udp%3A%2F%2Ftracker.coppersurfer.tk%3A6969","udp%3A%2F%2Fexodus.desync.com%3A6969"],"infoHash":"ef10330a05f6bb64c338531b469feaab87da9bd2","infoHashBuffer":{"type":"Buffer","data":[239,16,51,10,5,246,187,100,195,56,83,27,70,159,234,171,135,218,155,210]},"announce":[],"urlList":[]}}